<?xml version="1.0" encoding="UTF-8" standalone="no"?> <svg xmlns="http://www.w3.org/2000/svg" xmlns:xlink="http://www.w3.org/1999/xlink" xmlns:serif="http://www.serif.com/" width="700" height="300" viewBox="0 0 700 300" version="1.1" xml:space="preserve" style="fill-rule:evenodd;clip-rule:evenodd;stroke-linecap:round;stroke-linejoin:round;stroke-miterlimit:2;"><path d="M54.262,156.738c-1.625,-4.066 -4.019,-9.035 -4.761,-13.285c-3.008,-17.215 -0.786,-31.949 8.617,-42.539c10.789,-12.157 28.531,-18.949 52.008,-15.43c5.586,0.836 10.968,2.41 16.371,4.059c15.245,-42.297 55.054,-70.448 99.62,-70.448c58.552,-0 106.013,47.936 106.013,107.069m-249.305,154.741l248.648,-0.601m-248.648,0.601c-41.961,0 -75.977,-28.855 -75.977,-64.448c-0,-26.274 18.801,-49.914 47.516,-59.754" style="fill:none;stroke:#090;stroke-width:10px;"></path><g transform="matrix(1,0,0,1,-223.933,31.5505)"><g transform="matrix(106,0,0,106,294,209.023)"><rect x="0.029" y="-0.84" width="0.045" height="0.84" style="fill:#090;fill-rule:nonzero;"></rect></g><g transform="matrix(106,0,0,106,311.333,209.023)"><path d="M0.33,-0.613c0.06,-0 0.118,0.015 0.176,0.045c0.059,0.035 0.1,0.086 0.123,0.152c0.012,0.033 0.017,0.066 0.017,0.1l0,0.023c0,0.06 -0.018,0.118 -0.054,0.174c-0.037,0.043 -0.066,0.068 -0.088,0.076c-0.042,0.025 -0.076,0.037 -0.102,0.037c0,0.004 -0.026,0.006 -0.078,0.006l-0.004,-0c-0.054,-0 -0.11,-0.018 -0.168,-0.055c-0.082,-0.061 -0.123,-0.146 -0.123,-0.254c0,-0.058 0.017,-0.116 0.051,-0.173c0.059,-0.083 0.143,-0.127 0.25,-0.131Zm-0.254,0.308c0,0.065 0.021,0.123 0.063,0.174c0.026,0.029 0.061,0.053 0.105,0.07c0.038,0.011 0.068,0.016 0.09,0.016l0.01,0c0.054,0 0.109,-0.019 0.166,-0.057c0.033,-0.031 0.055,-0.058 0.064,-0.082c0.018,-0.042 0.028,-0.084 0.028,-0.125c-0,-0.037 -0.01,-0.078 -0.03,-0.123c-0.03,-0.055 -0.075,-0.093 -0.133,-0.115c-0.028,-0.01 -0.061,-0.017 -0.099,-0.019c-0.044,-0 -0.091,0.012 -0.141,0.037c-0.048,0.03 -0.083,0.069 -0.103,0.119c-0.01,0.023 -0.016,0.058 -0.02,0.105Z" style="fill:#090;fill-rule:nonzero;"></path></g><g transform="matrix(106,0,0,106,389.325,209.023)"><path d="M0.346,-0.613c0.081,-0 0.157,0.032 0.226,0.095l0.032,0.043l-0,-0.138l0.042,-0l0,0.551c0,0.093 -0.037,0.169 -0.113,0.228c-0.045,0.029 -0.086,0.047 -0.123,0.053c-0.006,0.004 -0.032,0.006 -0.078,0.006l-0.006,-0c-0.071,-0 -0.14,-0.028 -0.207,-0.084c-0.043,-0.048 -0.067,-0.094 -0.074,-0.139l0.049,-0c0.005,0.031 0.025,0.066 0.06,0.105l0.039,0.032c0.046,0.026 0.092,0.039 0.137,0.039l0.024,0.004c0.052,-0.006 0.093,-0.017 0.121,-0.034c0.05,-0.024 0.087,-0.066 0.111,-0.125c0.012,-0.031 0.018,-0.067 0.018,-0.105l-0,-0.055l-0.002,0c-0.027,0.053 -0.08,0.094 -0.159,0.123c-0.034,0.011 -0.071,0.016 -0.111,0.016l-0.008,-0c-0.051,-0 -0.109,-0.019 -0.172,-0.057c-0.042,-0.034 -0.07,-0.066 -0.086,-0.097c-0.024,-0.054 -0.037,-0.105 -0.037,-0.155c0,-0.037 0.011,-0.084 0.032,-0.14c0.01,-0.021 0.03,-0.048 0.058,-0.08c0.064,-0.058 0.14,-0.086 0.227,-0.086Zm-0.268,0.3l0,0.006l-0.002,0.002l0.002,0.002l0,0.008c0,0.057 0.018,0.109 0.055,0.158c0.03,0.033 0.053,0.051 0.068,0.055c0.042,0.023 0.078,0.035 0.11,0.035l0.017,0.002l0.022,0c0.048,0 0.101,-0.018 0.158,-0.055c0.045,-0.042 0.07,-0.079 0.076,-0.111c0.012,-0.03 0.018,-0.061 0.018,-0.094c-0,-0.077 -0.028,-0.143 -0.084,-0.197c-0.032,-0.024 -0.055,-0.037 -0.071,-0.041c-0.043,-0.016 -0.079,-0.023 -0.107,-0.023c-0.061,0.006 -0.104,0.017 -0.129,0.031c-0.089,0.051 -0.133,0.125 -0.133,0.222Z" style="fill:#090;fill-rule:nonzero;"></path></g><g transform="matrix(106,0,0,106,467.318,209.023)"><path d="M0.073,-0l-0.044,-0l0,-0.615l0.044,-0l0,0.615Zm-0,-0.739l-0.044,0l0,-0.101l0.044,0l-0,0.101Z" style="fill:#090;fill-rule:nonzero;"></path></g><g transform="matrix(0.85,0,0,1,72.6821,0)"><g transform="matrix(106,0,0,106,484.547,209.023)"><path d="M0.391,-0.613l0.211,-0l-0,0.047l-0.225,-0c-0.087,-0 -0.147,0.013 -0.18,0.039c-0.046,0.023 -0.082,0.07 -0.107,0.142c-0.005,0.021 -0.009,0.047 -0.012,0.078c0.003,0.039 0.009,0.074 0.02,0.104c0.026,0.062 0.067,0.107 0.125,0.135c0.032,0.015 0.084,0.023 0.156,0.023l0.223,0l-0,0.045l-0.278,-0c-0.095,-0 -0.174,-0.039 -0.236,-0.117c-0.02,-0.029 -0.036,-0.065 -0.047,-0.108l-0.012,-0.07c0,-0.049 0.011,-0.101 0.034,-0.156l0.025,-0.041c0.034,-0.051 0.085,-0.086 0.15,-0.106c0.024,-0.01 0.075,-0.015 0.153,-0.015Z" style="fill:#090;fill-rule:nonzero;"></path></g></g><g transform="matrix(106,0,0,106,550.398,209.023)"><rect x="0.029" y="-0.84" width="0.045" height="0.84" style="fill:#f58634;fill-rule:nonzero;"></rect></g><g transform="matrix(106,0,0,106,571.971,209.023)"><path d="M0.328,-0.613c0.124,-0 0.216,0.046 0.276,0.138l-0,-0.14l0.042,-0l0,0.615l-0.042,-0l-0,-0.137c-0.037,0.058 -0.093,0.1 -0.17,0.125c-0.029,0.008 -0.052,0.012 -0.069,0.012l-0.017,0c-0.077,0 -0.141,-0.018 -0.192,-0.055c-0.051,-0.035 -0.088,-0.084 -0.109,-0.148c-0.012,-0.04 -0.018,-0.076 -0.018,-0.106c0,-0.047 0.013,-0.098 0.039,-0.154c0.041,-0.069 0.101,-0.115 0.18,-0.139c0.039,-0.007 0.066,-0.011 0.08,-0.011Zm-0.25,0.299l0,0.003l-0.002,0.002l0.002,0.002l0,0.008c0,0.098 0.044,0.171 0.131,0.221c0.044,0.021 0.085,0.031 0.123,0.031l0.012,0c0.079,0 0.146,-0.031 0.203,-0.094c0.036,-0.051 0.055,-0.107 0.055,-0.168c-0,-0.082 -0.032,-0.149 -0.096,-0.203c-0.052,-0.036 -0.106,-0.054 -0.162,-0.054l-0.012,-0c-0.063,-0 -0.124,0.024 -0.182,0.072c-0.048,0.052 -0.072,0.112 -0.072,0.18Z" style="fill:#f58634;fill-rule:nonzero;"></path></g><g transform="matrix(106,0,0,106,649.963,209.023)"><path d="M0.604,-0.84l0.042,0l0,0.84l-0.042,-0l-0,-0.137c-0.033,0.05 -0.078,0.088 -0.135,0.114c-0.044,0.015 -0.08,0.023 -0.108,0.023l-0.011,0c-0.069,0 -0.126,-0.014 -0.172,-0.041c-0.06,-0.032 -0.102,-0.083 -0.129,-0.154c-0.013,-0.047 -0.02,-0.085 -0.02,-0.114c0,-0.034 0.009,-0.078 0.028,-0.13c0.035,-0.075 0.09,-0.125 0.166,-0.153c0.038,-0.014 0.072,-0.021 0.101,-0.021l0.01,-0c0.113,-0 0.201,0.043 0.264,0.129l0.004,0.009l0.002,0l-0,-0.365Zm-0.526,0.52l0,0.009l-0.002,0.002l0.002,0.002l0,0.008c0,0.109 0.053,0.187 0.158,0.235c0.034,0.011 0.068,0.017 0.104,0.017c0.096,0 0.171,-0.04 0.224,-0.119c0.025,-0.046 0.038,-0.093 0.038,-0.141c-0,-0.061 -0.02,-0.118 -0.059,-0.17c-0.028,-0.03 -0.055,-0.05 -0.082,-0.062c-0.041,-0.018 -0.082,-0.027 -0.121,-0.027c-0.07,-0 -0.132,0.023 -0.186,0.07c-0.034,0.035 -0.056,0.069 -0.064,0.103c-0.008,0.027 -0.012,0.051 -0.012,0.073Z" style="fill:#f58634;fill-rule:nonzero;"></path></g><g transform="matrix(106,0,0,106,727.956,209.023)"><path d="M0.604,-0.84l0.042,0l0,0.84l-0.042,-0l-0,-0.137c-0.033,0.05 -0.078,0.088 -0.135,0.114c-0.044,0.015 -0.08,0.023 -0.108,0.023l-0.011,0c-0.069,0 -0.126,-0.014 -0.172,-0.041c-0.06,-0.032 -0.102,-0.083 -0.129,-0.154c-0.013,-0.047 -0.02,-0.085 -0.02,-0.114c0,-0.034 0.009,-0.078 0.028,-0.13c0.035,-0.075 0.09,-0.125 0.166,-0.153c0.038,-0.014 0.072,-0.021 0.101,-0.021l0.01,-0c0.113,-0 0.201,0.043 0.264,0.129l0.004,0.009l0.002,0l-0,-0.365Zm-0.526,0.52l0,0.009l-0.002,0.002l0.002,0.002l0,0.008c0,0.109 0.053,0.187 0.158,0.235c0.034,0.011 0.068,0.017 0.104,0.017c0.096,0 0.171,-0.04 0.224,-0.119c0.025,-0.046 0.038,-0.093 0.038,-0.141c-0,-0.061 -0.02,-0.118 -0.059,-0.17c-0.028,-0.03 -0.055,-0.05 -0.082,-0.062c-0.041,-0.018 -0.082,-0.027 -0.121,-0.027c-0.07,-0 -0.132,0.023 -0.186,0.07c-0.034,0.035 -0.056,0.069 -0.064,0.103c-0.008,0.027 -0.012,0.051 -0.012,0.073Z" style="fill:#f58634;fill-rule:nonzero;"></path></g><g transform="matrix(106,0,0,106,805.949,209.023)"><path d="M0.332,-0.613c0.09,-0 0.167,0.03 0.232,0.09l0.032,0.039c0.034,0.052 0.05,0.109 0.05,0.172l0,0.013l-0.568,0l0,0.01c0,0.052 0.019,0.104 0.057,0.154c0.042,0.041 0.08,0.066 0.113,0.074c0.033,0.011 0.061,0.016 0.084,0.016c0.114,0 0.196,-0.049 0.246,-0.146c0.008,-0.018 0.014,-0.038 0.018,-0.063l0.047,0l-0,0.004c-0,0.03 -0.016,0.072 -0.047,0.127c-0.036,0.047 -0.083,0.082 -0.141,0.105c-0.042,0.012 -0.075,0.018 -0.1,0.018l-0.031,-0c-0.058,-0 -0.117,-0.019 -0.176,-0.057c-0.048,-0.043 -0.076,-0.077 -0.086,-0.101c-0.022,-0.049 -0.033,-0.099 -0.033,-0.149c0,-0.049 0.013,-0.102 0.039,-0.158c0.035,-0.058 0.086,-0.1 0.155,-0.127c0.035,-0.01 0.072,-0.017 0.109,-0.021Zm-0.25,0.269l0.516,0l-0,-0.002c-0.008,-0.048 -0.022,-0.085 -0.041,-0.111c-0.029,-0.041 -0.067,-0.071 -0.114,-0.088c-0.038,-0.014 -0.073,-0.021 -0.103,-0.021c-0.026,-0 -0.063,0.007 -0.111,0.021c-0.032,0.014 -0.063,0.037 -0.094,0.068c-0.035,0.048 -0.053,0.092 -0.053,0.133Z" style="fill:#f58634;fill-rule:nonzero;"></path></g><g transform="matrix(106,0,0,106,883.942,209.023)"><path d="M0.072,-0.529c0.048,-0.056 0.104,-0.084 0.17,-0.084l0.004,-0l0,0.043l-0.002,-0c-0.063,-0 -0.111,0.025 -0.144,0.076c-0.017,0.023 -0.026,0.061 -0.026,0.115l0,0.379l-0.045,-0l0,-0.615l0.043,-0l0,0.086Z" style="fill:#f58634;fill-rule:nonzero;"></path></g></g></svg> 